<mxfile host="app.diagrams.net" modified="2021-08-16T19:22:09.686Z" agent="5.0 (Macintosh; Intel Mac OS X 10_15_7) AppleWebKit/605.1.15 (KHTML, like Gecko) Version/14.1.1 Safari/605.1.15" etag="D4ItKygvkmqAek1gVrqE" version="14.9.7" type="github">
  <diagram id="2J1cTA6EyWv8jmpRC_W_" name="Page-1">
    <mxGraphModel dx="1183" dy="1875" grid="1" gridSize="10" guides="1" tooltips="1" connect="1" arrows="1" fold="1" page="0" pageScale="1" pageWidth="850" pageHeight="1100" math="0" shadow="0">
      <root>
        <mxCell id="0" />
        <mxCell id="1" parent="0" />
        <mxCell id="2" value="" style="dashed=0;html=1;shape=mxgraph.aws3.virtual_private_cloud;fillColor=#F58536;gradientColor=none;dashed=0;" parent="1" vertex="1">
          <mxGeometry x="70" y="-920" width="52" height="36" as="geometry" />
        </mxCell>
        <mxCell id="3" value="" style="rounded=1;whiteSpace=wrap;html=1;" parent="1" vertex="1">
          <mxGeometry x="20" y="-960" width="810" height="570" as="geometry" />
        </mxCell>
        <mxCell id="4" value="&lt;span style=&quot;color: rgb(35 , 47 , 62) ; font-family: &amp;#34;helvetica&amp;#34; ; font-size: 12px ; font-style: normal ; font-weight: normal ; letter-spacing: normal ; text-align: center ; text-indent: 0px ; text-transform: none ; word-spacing: 0px ; background-color: rgb(248 , 249 , 250) ; text-decoration: none ; display: inline ; float: none&quot;&gt;US-EAST-1&lt;/span&gt;" style="outlineConnect=0;dashed=0;verticalLabelPosition=bottom;verticalAlign=top;align=center;html=1;shape=mxgraph.aws3.cloud_2;fillColor=#F58534;gradientColor=none;" parent="1" vertex="1">
          <mxGeometry x="30" y="-987" width="70" height="60" as="geometry" />
        </mxCell>
        <mxCell id="5" value="" style="rounded=1;arcSize=10;dashed=0;fillColor=none;gradientColor=none;strokeWidth=2;" parent="1" vertex="1">
          <mxGeometry x="54" y="-900" width="680" height="480" as="geometry" />
        </mxCell>
        <mxCell id="6" value="" style="dashed=0;html=1;shape=mxgraph.aws3.virtual_private_cloud;fillColor=#F58536;gradientColor=none;dashed=0;" parent="1" vertex="1">
          <mxGeometry x="70" y="-910" width="52" height="36" as="geometry" />
        </mxCell>
        <mxCell id="7" value="&lt;font color=&quot;#ff9933&quot;&gt;us-east-1a&lt;/font&gt;" style="outlineConnect=0;gradientColor=none;html=1;whiteSpace=wrap;fontSize=12;fontStyle=0;shape=mxgraph.aws4.group;grIcon=mxgraph.aws4.group_availability_zone;strokeColor=#545B64;fillColor=none;verticalAlign=top;align=left;spacingLeft=30;fontColor=#545B64;dashed=1;" parent="1" vertex="1">
          <mxGeometry x="100" y="-860" width="260" height="430" as="geometry" />
        </mxCell>
        <mxCell id="8" value="&lt;font color=&quot;#ff9933&quot;&gt;us-east-1b&lt;/font&gt;" style="outlineConnect=0;gradientColor=none;html=1;whiteSpace=wrap;fontSize=12;fontStyle=0;shape=mxgraph.aws4.group;grIcon=mxgraph.aws4.group_availability_zone;strokeColor=#545B64;fillColor=none;verticalAlign=top;align=left;spacingLeft=30;fontColor=#545B64;dashed=1;" parent="1" vertex="1">
          <mxGeometry x="440" y="-860" width="250" height="430" as="geometry" />
        </mxCell>
        <mxCell id="9" value="Public subnet -&amp;nbsp;&lt;span style=&quot;color: rgb(22 , 25 , 31) ; font-family: &amp;#34;amazon ember&amp;#34; , &amp;#34;helvetica neue&amp;#34; , &amp;#34;roboto&amp;#34; , &amp;#34;arial&amp;#34; , sans-serif ; font-size: 14px ; background-color: rgb(241 , 250 , 255)&quot;&gt;10.1.10.0/24&lt;/span&gt;" style="points=[[0,0],[0.25,0],[0.5,0],[0.75,0],[1,0],[1,0.25],[1,0.5],[1,0.75],[1,1],[0.75,1],[0.5,1],[0.25,1],[0,1],[0,0.75],[0,0.5],[0,0.25]];outlineConnect=0;gradientColor=none;html=1;whiteSpace=wrap;fontSize=12;fontStyle=0;shape=mxgraph.aws4.group;grIcon=mxgraph.aws4.group_security_group;grStroke=0;strokeColor=#248814;fillColor=#E9F3E6;verticalAlign=top;align=left;spacingLeft=30;fontColor=#248814;dashed=0;" parent="1" vertex="1">
          <mxGeometry x="122" y="-820" width="218" height="140" as="geometry" />
        </mxCell>
        <mxCell id="10" value="Private subnet -&amp;nbsp;&lt;span style=&quot;color: rgb(22 , 25 , 31) ; font-family: &amp;#34;amazon ember&amp;#34; , &amp;#34;helvetica neue&amp;#34; , &amp;#34;roboto&amp;#34; , &amp;#34;arial&amp;#34; , sans-serif ; font-size: 14px ; background-color: rgb(241 , 250 , 255)&quot;&gt;10.1.20.0/24&lt;/span&gt;" style="points=[[0,0],[0.25,0],[0.5,0],[0.75,0],[1,0],[1,0.25],[1,0.5],[1,0.75],[1,1],[0.75,1],[0.5,1],[0.25,1],[0,1],[0,0.75],[0,0.5],[0,0.25]];outlineConnect=0;gradientColor=none;html=1;whiteSpace=wrap;fontSize=12;fontStyle=0;shape=mxgraph.aws4.group;grIcon=mxgraph.aws4.group_security_group;grStroke=0;strokeColor=#147EBA;fillColor=#E6F2F8;verticalAlign=top;align=left;spacingLeft=30;fontColor=#147EBA;dashed=0;" parent="1" vertex="1">
          <mxGeometry x="122" y="-660" width="218" height="210" as="geometry" />
        </mxCell>
        <mxCell id="11" value="Public subnet-&lt;span style=&quot;color: rgb(22 , 25 , 31) ; font-family: &amp;#34;amazon ember&amp;#34; , &amp;#34;helvetica neue&amp;#34; , &amp;#34;roboto&amp;#34; , &amp;#34;arial&amp;#34; , sans-serif ; font-size: 14px ; background-color: rgb(241 , 250 , 255)&quot;&gt;10.1.11.0/24&lt;/span&gt;" style="points=[[0,0],[0.25,0],[0.5,0],[0.75,0],[1,0],[1,0.25],[1,0.5],[1,0.75],[1,1],[0.75,1],[0.5,1],[0.25,1],[0,1],[0,0.75],[0,0.5],[0,0.25]];outlineConnect=0;gradientColor=none;html=1;whiteSpace=wrap;fontSize=12;fontStyle=0;shape=mxgraph.aws4.group;grIcon=mxgraph.aws4.group_security_group;grStroke=0;strokeColor=#248814;fillColor=#E9F3E6;verticalAlign=top;align=left;spacingLeft=30;fontColor=#248814;dashed=0;" parent="1" vertex="1">
          <mxGeometry x="465" y="-820" width="200" height="140" as="geometry" />
        </mxCell>
        <mxCell id="12" value="Private subnet-&lt;span style=&quot;color: rgb(22 , 25 , 31) ; font-family: &amp;#34;amazon ember&amp;#34; , &amp;#34;helvetica neue&amp;#34; , &amp;#34;roboto&amp;#34; , &amp;#34;arial&amp;#34; , sans-serif ; font-size: 14px ; background-color: rgb(241 , 250 , 255)&quot;&gt;10.1.21.0/24&lt;/span&gt;" style="points=[[0,0],[0.25,0],[0.5,0],[0.75,0],[1,0],[1,0.25],[1,0.5],[1,0.75],[1,1],[0.75,1],[0.5,1],[0.25,1],[0,1],[0,0.75],[0,0.5],[0,0.25]];outlineConnect=0;gradientColor=none;html=1;whiteSpace=wrap;fontSize=12;fontStyle=0;shape=mxgraph.aws4.group;grIcon=mxgraph.aws4.group_security_group;grStroke=0;strokeColor=#147EBA;fillColor=#E6F2F8;verticalAlign=top;align=left;spacingLeft=30;fontColor=#147EBA;dashed=0;" parent="1" vertex="1">
          <mxGeometry x="465" y="-660" width="205" height="210" as="geometry" />
        </mxCell>
        <mxCell id="6p73CnMtwlY3djt6DNR_-40" style="edgeStyle=orthogonalEdgeStyle;rounded=0;orthogonalLoop=1;jettySize=auto;html=1;exitX=0.5;exitY=1;exitDx=0;exitDy=0;entryX=1;entryY=0.5;entryDx=0;entryDy=0;entryPerimeter=0;" parent="1" source="13" target="28" edge="1">
          <mxGeometry relative="1" as="geometry">
            <mxPoint x="409" y="-670" as="targetPoint" />
          </mxGeometry>
        </mxCell>
        <mxCell id="13" value="Auto Scaling group" style="points=[[0,0],[0.25,0],[0.5,0],[0.75,0],[1,0],[1,0.25],[1,0.5],[1,0.75],[1,1],[0.75,1],[0.5,1],[0.25,1],[0,1],[0,0.75],[0,0.5],[0,0.25]];outlineConnect=0;gradientColor=none;html=1;whiteSpace=wrap;fontSize=12;fontStyle=0;shape=mxgraph.aws4.groupCenter;grIcon=mxgraph.aws4.group_auto_scaling_group;grStroke=1;strokeColor=#D86613;fillColor=none;verticalAlign=top;align=center;fontColor=#D86613;dashed=1;spacingTop=25;" parent="1" vertex="1">
          <mxGeometry x="220" y="-771" width="410" height="70" as="geometry" />
        </mxCell>
        <mxCell id="14" value="Auto Scaling group" style="points=[[0,0],[0.25,0],[0.5,0],[0.75,0],[1,0],[1,0.25],[1,0.5],[1,0.75],[1,1],[0.75,1],[0.5,1],[0.25,1],[0,1],[0,0.75],[0,0.5],[0,0.25]];outlineConnect=0;gradientColor=none;html=1;whiteSpace=wrap;fontSize=12;fontStyle=0;shape=mxgraph.aws4.groupCenter;grIcon=mxgraph.aws4.group_auto_scaling_group;grStroke=1;strokeColor=#D86613;fillColor=none;verticalAlign=top;align=center;fontColor=#D86613;dashed=1;spacingTop=25;" parent="1" vertex="1">
          <mxGeometry x="190" y="-600" width="450" height="80" as="geometry" />
        </mxCell>
        <mxCell id="YGUC5QQaL94CinhJIf4c-41" value="" style="edgeStyle=orthogonalEdgeStyle;rounded=0;orthogonalLoop=1;jettySize=auto;html=1;" parent="1" source="15" target="10" edge="1">
          <mxGeometry relative="1" as="geometry" />
        </mxCell>
        <mxCell id="15" value="Web Server-&lt;span style=&quot;font-family: &amp;#34;helvetica&amp;#34; ; background-color: rgb(248 , 249 , 250)&quot;&gt;M5.Medium&lt;/span&gt;" style="outlineConnect=0;fontColor=#232F3E;gradientColor=none;strokeColor=#232F3E;fillColor=#ffffff;dashed=0;verticalLabelPosition=bottom;verticalAlign=top;align=center;html=1;fontSize=12;fontStyle=0;aspect=fixed;shape=mxgraph.aws4.resourceIcon;resIcon=mxgraph.aws4.traditional_server;" parent="1" vertex="1">
          <mxGeometry x="270" y="-756" width="35" height="35" as="geometry" />
        </mxCell>
        <mxCell id="16" value="Web Server-&lt;span style=&quot;font-family: &amp;#34;helvetica&amp;#34; ; background-color: rgb(248 , 249 , 250)&quot;&gt;M5.Medium&lt;/span&gt;" style="outlineConnect=0;fontColor=#232F3E;gradientColor=none;strokeColor=#232F3E;fillColor=#ffffff;dashed=0;verticalLabelPosition=bottom;verticalAlign=top;align=center;html=1;fontSize=12;fontStyle=0;aspect=fixed;shape=mxgraph.aws4.resourceIcon;resIcon=mxgraph.aws4.traditional_server;" parent="1" vertex="1">
          <mxGeometry x="500" y="-756" width="35" height="35" as="geometry" />
        </mxCell>
        <mxCell id="6p73CnMtwlY3djt6DNR_-42" style="edgeStyle=orthogonalEdgeStyle;rounded=0;orthogonalLoop=1;jettySize=auto;html=1;exitX=0.5;exitY=1;exitDx=0;exitDy=0;entryX=0;entryY=0.5;entryDx=0;entryDy=0;entryPerimeter=0;" parent="1" source="17" target="20" edge="1">
          <mxGeometry relative="1" as="geometry" />
        </mxCell>
        <mxCell id="17" value="&lt;span style=&quot;color: rgb(35 , 47 , 62) ; font-family: &amp;#34;helvetica&amp;#34; ; font-size: 12px ; font-style: normal ; font-weight: normal ; letter-spacing: normal ; text-indent: 0px ; text-transform: none ; word-spacing: 0px ; background-color: rgb(248 , 249 , 250) ; text-decoration: none ; display: inline ; float: none&quot;&gt;App Server- M5.Large&lt;/span&gt;" style="aspect=fixed;perimeter=ellipsePerimeter;html=1;align=right;shadow=0;dashed=0;fontColor=#4277BB;labelBackgroundColor=#ffffff;fontSize=12;spacingTop=3;image;image=img/lib/ibm/applications/app_server.svg;" parent="1" vertex="1">
          <mxGeometry x="242" y="-600.5" width="45" height="45" as="geometry" />
        </mxCell>
        <mxCell id="6p73CnMtwlY3djt6DNR_-43" style="edgeStyle=orthogonalEdgeStyle;rounded=0;orthogonalLoop=1;jettySize=auto;html=1;exitX=0.5;exitY=1;exitDx=0;exitDy=0;" parent="1" source="18" target="20" edge="1">
          <mxGeometry relative="1" as="geometry">
            <Array as="points">
              <mxPoint x="523" y="-537" />
              <mxPoint x="415" y="-537" />
              <mxPoint x="415" y="-540" />
              <mxPoint x="310" y="-540" />
            </Array>
          </mxGeometry>
        </mxCell>
        <mxCell id="YGUC5QQaL94CinhJIf4c-40" value="" style="edgeStyle=orthogonalEdgeStyle;rounded=0;orthogonalLoop=1;jettySize=auto;html=1;" parent="1" source="18" target="21" edge="1">
          <mxGeometry relative="1" as="geometry" />
        </mxCell>
        <mxCell id="18" value="&lt;span style=&quot;color: rgb(35 , 47 , 62) ; font-family: &amp;#34;helvetica&amp;#34; ; font-size: 12px ; font-style: normal ; font-weight: normal ; letter-spacing: normal ; text-indent: 0px ; text-transform: none ; word-spacing: 0px ; background-color: rgb(248 , 249 , 250) ; text-decoration: none ; display: inline ; float: none&quot;&gt;App Server-&lt;/span&gt;&lt;span style=&quot;color: rgb(35 , 47 , 62) ; font-family: &amp;#34;helvetica&amp;#34; ; background-color: rgb(248 , 249 , 250)&quot;&gt;M5.Large&lt;/span&gt;" style="aspect=fixed;perimeter=ellipsePerimeter;html=1;align=left;shadow=0;dashed=0;fontColor=#4277BB;labelBackgroundColor=#ffffff;fontSize=12;spacingTop=3;image;image=img/lib/ibm/applications/app_server.svg;" parent="1" vertex="1">
          <mxGeometry x="520" y="-602.5" width="45" height="45" as="geometry" />
        </mxCell>
        <mxCell id="19" style="edgeStyle=orthogonalEdgeStyle;rounded=0;orthogonalLoop=1;jettySize=auto;html=1;" parent="1" source="20" target="21" edge="1">
          <mxGeometry relative="1" as="geometry" />
        </mxCell>
        <mxCell id="20" value="&lt;span style=&quot;color: rgb(35 , 47 , 62) ; font-family: &amp;#34;helvetica&amp;#34; ; font-size: 12px ; font-style: normal ; font-weight: normal ; letter-spacing: normal ; text-align: center ; text-indent: 0px ; text-transform: none ; word-spacing: 0px ; background-color: rgb(248 , 249 , 250) ; text-decoration: none ; display: inline ; float: none&quot;&gt;Master RDS-&amp;nbsp;M3.Large&lt;/span&gt;" style="outlineConnect=0;dashed=0;verticalLabelPosition=bottom;verticalAlign=top;align=center;html=1;shape=mxgraph.aws3.rds_db_instance;fillColor=#2E73B8;gradientColor=none;" parent="1" vertex="1">
          <mxGeometry x="290" y="-501" width="39.5" height="46" as="geometry" />
        </mxCell>
        <mxCell id="21" value="&lt;span style=&quot;color: rgb(35 , 47 , 62) ; font-family: &amp;#34;helvetica&amp;#34; ; font-size: 12px ; font-style: normal ; font-weight: normal ; letter-spacing: normal ; text-align: center ; text-indent: 0px ; text-transform: none ; word-spacing: 0px ; background-color: rgb(248 , 249 , 250) ; text-decoration: none ; display: inline ; float: none&quot;&gt;Read Replica RDS-M3.Large&lt;/span&gt;" style="outlineConnect=0;dashed=0;verticalLabelPosition=bottom;verticalAlign=top;align=center;html=1;shape=mxgraph.aws3.rds_db_instance_read_replica;fillColor=#2E73B8;gradientColor=none;" parent="1" vertex="1">
          <mxGeometry x="477" y="-504" width="40" height="50" as="geometry" />
        </mxCell>
        <mxCell id="24" style="edgeStyle=orthogonalEdgeStyle;rounded=0;orthogonalLoop=1;jettySize=auto;html=1;entryX=0.5;entryY=0;entryDx=0;entryDy=0;entryPerimeter=0;" parent="1" source="25" target="30" edge="1">
          <mxGeometry relative="1" as="geometry" />
        </mxCell>
        <mxCell id="25" value="&lt;span style=&quot;color: rgb(35 , 47 , 62) ; font-family: &amp;#34;helvetica&amp;#34; ; font-size: 12px ; font-style: normal ; font-weight: normal ; letter-spacing: normal ; text-align: center ; text-indent: 0px ; text-transform: none ; word-spacing: 0px ; background-color: rgb(248 , 249 , 250) ; text-decoration: none ; display: inline ; float: none&quot;&gt;Internet Gateway&lt;/span&gt;" style="outlineConnect=0;dashed=0;verticalLabelPosition=bottom;verticalAlign=top;align=center;html=1;shape=mxgraph.aws3.internet_gateway;fillColor=#F58534;gradientColor=none;" parent="1" vertex="1">
          <mxGeometry x="371" y="-940" width="54" height="56" as="geometry" />
        </mxCell>
        <mxCell id="26" style="edgeStyle=orthogonalEdgeStyle;rounded=0;orthogonalLoop=1;jettySize=auto;html=1;exitX=0.5;exitY=1;exitDx=0;exitDy=0;exitPerimeter=0;" parent="1" source="28" target="17" edge="1">
          <mxGeometry relative="1" as="geometry" />
        </mxCell>
        <mxCell id="27" style="edgeStyle=orthogonalEdgeStyle;rounded=0;orthogonalLoop=1;jettySize=auto;html=1;entryX=0.5;entryY=0;entryDx=0;entryDy=0;exitX=0.5;exitY=1;exitDx=0;exitDy=0;exitPerimeter=0;" parent="1" source="28" target="18" edge="1">
          <mxGeometry relative="1" as="geometry" />
        </mxCell>
        <mxCell id="28" value="&lt;font color=&quot;#232f3e&quot; face=&quot;helvetica&quot;&gt;&lt;span&gt;Load Balancer&lt;/span&gt;&lt;/font&gt;" style="outlineConnect=0;dashed=0;verticalLabelPosition=bottom;verticalAlign=top;align=center;html=1;shape=mxgraph.aws3.application_load_balancer;fillColor=#F58534;gradientColor=none;" parent="1" vertex="1">
          <mxGeometry x="384" y="-675" width="40" height="41" as="geometry" />
        </mxCell>
        <mxCell id="29" style="edgeStyle=orthogonalEdgeStyle;rounded=0;orthogonalLoop=1;jettySize=auto;html=1;exitX=0.5;exitY=1;exitDx=0;exitDy=0;exitPerimeter=0;" parent="1" source="30" target="15" edge="1">
          <mxGeometry relative="1" as="geometry" />
        </mxCell>
        <mxCell id="30" value="&lt;font color=&quot;#232f3e&quot; face=&quot;helvetica&quot;&gt;&lt;span&gt;Load Balancer&lt;/span&gt;&lt;/font&gt;" style="outlineConnect=0;dashed=0;verticalLabelPosition=bottom;verticalAlign=top;align=center;html=1;shape=mxgraph.aws3.application_load_balancer;fillColor=#F58534;gradientColor=none;" parent="1" vertex="1">
          <mxGeometry x="383" y="-850" width="31" height="30" as="geometry" />
        </mxCell>
        <mxCell id="31" style="edgeStyle=orthogonalEdgeStyle;rounded=0;orthogonalLoop=1;jettySize=auto;html=1;exitX=0.5;exitY=1;exitDx=0;exitDy=0;exitPerimeter=0;" parent="1" source="30" target="16" edge="1">
          <mxGeometry relative="1" as="geometry">
            <mxPoint x="408.5" y="-810" as="sourcePoint" />
            <mxPoint x="297.52" y="-746" as="targetPoint" />
          </mxGeometry>
        </mxCell>
        <mxCell id="32" style="edgeStyle=orthogonalEdgeStyle;rounded=0;orthogonalLoop=1;jettySize=auto;html=1;exitX=0.5;exitY=1;exitDx=0;exitDy=0;exitPerimeter=0;" parent="1" source="34" target="28" edge="1">
          <mxGeometry relative="1" as="geometry">
            <Array as="points">
              <mxPoint x="165" y="-690" />
              <mxPoint x="404" y="-690" />
            </Array>
          </mxGeometry>
        </mxCell>
        <mxCell id="33" style="edgeStyle=orthogonalEdgeStyle;rounded=0;orthogonalLoop=1;jettySize=auto;html=1;entryX=0.5;entryY=1;entryDx=0;entryDy=0;entryPerimeter=0;exitX=0.5;exitY=0;exitDx=0;exitDy=0;exitPerimeter=0;" parent="1" source="34" target="25" edge="1">
          <mxGeometry relative="1" as="geometry" />
        </mxCell>
        <mxCell id="34" value="&lt;font color=&quot;#232f3e&quot; face=&quot;helvetica&quot;&gt;&lt;span&gt;NAT Gateway&lt;br&gt;-&lt;/span&gt;&lt;/font&gt;&lt;span style=&quot;color: rgb(22 , 25 , 31) ; font-family: &amp;#34;amazon ember&amp;#34; , &amp;#34;helvetica neue&amp;#34; , &amp;#34;roboto&amp;#34; , &amp;#34;arial&amp;#34; , sans-serif ; font-size: 14px&quot;&gt;34.205.128.226&lt;/span&gt;&lt;font color=&quot;#232f3e&quot; face=&quot;helvetica&quot;&gt;&lt;span&gt;&lt;br&gt;&lt;/span&gt;&lt;/font&gt;" style="outlineConnect=0;dashed=0;verticalLabelPosition=bottom;verticalAlign=top;align=center;html=1;shape=mxgraph.aws3.vpc_nat_gateway;fillColor=#F58536;gradientColor=none;" parent="1" vertex="1">
          <mxGeometry x="140" y="-780" width="50" height="50" as="geometry" />
        </mxCell>
        <mxCell id="35" value="&lt;span style=&quot;color: rgb(35 , 47 , 62) ; font-family: &amp;#34;helvetica&amp;#34; ; font-size: 12px ; font-style: normal ; font-weight: normal ; letter-spacing: normal ; text-align: center ; text-indent: 0px ; text-transform: none ; word-spacing: 0px ; background-color: rgb(248 , 249 , 250) ; text-decoration: none ; display: inline ; float: none&quot;&gt;AWS S3&lt;/span&gt;" style="pointerEvents=1;shadow=0;dashed=0;html=1;strokeColor=none;fillColor=#DF8C42;labelPosition=center;verticalLabelPosition=bottom;verticalAlign=top;align=center;outlineConnect=0;shape=mxgraph.veeam2.aws_s3;" parent="1" vertex="1">
          <mxGeometry x="765" y="-840" width="50" height="50" as="geometry" />
        </mxCell>
        <mxCell id="36" style="edgeStyle=orthogonalEdgeStyle;rounded=0;orthogonalLoop=1;jettySize=auto;html=1;exitX=0.5;exitY=1;exitDx=0;exitDy=0;exitPerimeter=0;" parent="1" source="37" target="35" edge="1">
          <mxGeometry relative="1" as="geometry" />
        </mxCell>
        <mxCell id="37" value="&lt;span style=&quot;color: rgb(35 , 47 , 62) ; font-family: &amp;#34;helvetica&amp;#34; ; font-size: 12px ; font-style: normal ; font-weight: normal ; letter-spacing: normal ; text-align: center ; text-indent: 0px ; text-transform: none ; word-spacing: 0px ; background-color: rgb(248 , 249 , 250) ; text-decoration: none ; display: inline ; float: none&quot;&gt;CloudFront&lt;/span&gt;" style="outlineConnect=0;dashed=0;verticalLabelPosition=bottom;verticalAlign=top;align=center;html=1;shape=mxgraph.aws3.cloudfront;fillColor=#F58536;gradientColor=none;" parent="1" vertex="1">
          <mxGeometry x="590" y="-946" width="60" height="60" as="geometry" />
        </mxCell>
        <mxCell id="38" style="edgeStyle=orthogonalEdgeStyle;rounded=0;orthogonalLoop=1;jettySize=auto;html=1;entryX=0.5;entryY=0;entryDx=0;entryDy=0;entryPerimeter=0;" parent="1" source="40" target="25" edge="1">
          <mxGeometry relative="1" as="geometry" />
        </mxCell>
        <mxCell id="39" style="edgeStyle=orthogonalEdgeStyle;rounded=0;orthogonalLoop=1;jettySize=auto;html=1;" parent="1" source="40" target="37" edge="1">
          <mxGeometry relative="1" as="geometry" />
        </mxCell>
        <mxCell id="40" value="&lt;span style=&quot;color: rgb(35 , 47 , 62) ; font-family: &amp;#34;helvetica&amp;#34; ; font-size: 12px ; font-style: normal ; font-weight: normal ; letter-spacing: normal ; text-align: center ; text-indent: 0px ; text-transform: none ; word-spacing: 0px ; background-color: rgb(248 , 249 , 250) ; text-decoration: none ; display: inline ; float: none&quot;&gt;Users&lt;/span&gt;" style="aspect=fixed;perimeter=ellipsePerimeter;html=1;align=center;shadow=0;dashed=0;spacingTop=3;image;image=img/lib/active_directory/users.svg;" parent="1" vertex="1">
          <mxGeometry x="381" y="-1040" width="33" height="50" as="geometry" />
        </mxCell>
        <mxCell id="6p73CnMtwlY3djt6DNR_-41" style="edgeStyle=orthogonalEdgeStyle;rounded=0;orthogonalLoop=1;jettySize=auto;html=1;exitX=0.5;exitY=1;exitDx=0;exitDy=0;" parent="1" source="14" target="14" edge="1">
          <mxGeometry relative="1" as="geometry" />
        </mxCell>
        <mxCell id="YGUC5QQaL94CinhJIf4c-43" value="&lt;span style=&quot;color: rgb(22 , 25 , 31) ; font-family: &amp;#34;amazon ember&amp;#34; , &amp;#34;helvetica neue&amp;#34; , &amp;#34;roboto&amp;#34; , &amp;#34;arial&amp;#34; , sans-serif ; font-size: 14px ; background-color: rgb(241 , 250 , 255)&quot;&gt;10.1.0.0/16&lt;/span&gt;" style="text;html=1;strokeColor=none;fillColor=none;align=center;verticalAlign=middle;whiteSpace=wrap;rounded=0;" parent="1" vertex="1">
          <mxGeometry x="122" y="-896" width="68" height="22" as="geometry" />
        </mxCell>
        <UserObject label="AWS VPC" lucidchartObjectId="Fi-NS5VtufaU" id="xmqK6uuSIucOSfRpiWDm-40">
          <mxCell style="html=1;whiteSpace=wrap;fontSize=13;fontColor=#000000;fontStyle=1;spacing=3;verticalAlign=bottom;strokeOpacity=0;fillOpacity=100;fillColor=#e5e5e5;dashed=1;" vertex="1" parent="1">
            <mxGeometry x="235" y="19" width="816" height="535" as="geometry" />
          </mxCell>
        </UserObject>
        <UserObject label="Private subnet space" lucidchartObjectId="Fi-NbQVahvlz" id="xmqK6uuSIucOSfRpiWDm-41">
          <mxCell style="html=1;whiteSpace=wrap;fontSize=11;fontColor=#000000;fontStyle=1;spacing=3;verticalAlign=bottom;strokeOpacity=0;fillOpacity=100;fillColor=#ffffff;dashed=1;" vertex="1" parent="1">
            <mxGeometry x="547" y="41" width="468" height="492" as="geometry" />
          </mxCell>
        </UserObject>
        <UserObject label="Security Group: SGAPP" lucidchartObjectId="Fi-NVdWH6NXo" id="xmqK6uuSIucOSfRpiWDm-42">
          <mxCell style="html=1;whiteSpace=wrap;verticalAlign=top;align=center;fillColor=none;fillOpacity=100;dashed=1;dashPattern=5 5;strokeColor=#5A6C86;fontColor=#5A6C86;fontSize=11;fontStyle=1;spacing=0;strokeOpacity=100;" vertex="1" parent="1">
            <mxGeometry x="571" y="127" width="204" height="248" as="geometry" />
          </mxCell>
        </UserObject>
        <UserObject label="Kubernetes" lucidchartObjectId="Fi-NXLJ9j_O3" id="xmqK6uuSIucOSfRpiWDm-43">
          <mxCell style="html=1;whiteSpace=wrap;aspect=fixed;html=1;align=center;image;image=img/lib/mscae/Kubernetes.svg;fontSize=11;fontStyle=1;spacing=0;strokeColor=#232f3e;strokeOpacity=100;fillColor=#326ce5;dashed=1;" vertex="1" parent="1">
            <mxGeometry x="667" y="219" width="72" height="72" as="geometry" />
          </mxCell>
        </UserObject>
        <UserObject label="" lucidchartObjectId="Fi-Nw4yX8DHx" id="xmqK6uuSIucOSfRpiWDm-44">
          <mxCell style="html=1;whiteSpace=wrap;shape=mxgraph.aws4.instance2;labelPosition=center;verticalLabelPosition=bottom;align=center;verticalAlign=top;strokeColor=none;fontSize=11;spacing=0;strokeOpacity=100;fillOpacity=100;fillColor=#02b3e4;dashed=1;" vertex="1" parent="1">
            <mxGeometry x="607" y="291" width="48" height="48" as="geometry" />
          </mxCell>
        </UserObject>
        <UserObject label="" lucidchartObjectId="Fi-NzjjEFRne" id="xmqK6uuSIucOSfRpiWDm-45">
          <mxCell style="html=1;whiteSpace=wrap;shape=mxgraph.aws4.instance2;labelPosition=center;verticalLabelPosition=bottom;align=center;verticalAlign=top;strokeColor=none;fontSize=11;spacing=0;strokeOpacity=100;fillOpacity=100;fillColor=#02b3e4;dashed=1;" vertex="1" parent="1">
            <mxGeometry x="607" y="231" width="48" height="48" as="geometry" />
          </mxCell>
        </UserObject>
        <UserObject label="" lucidchartObjectId="Fi-N8VxSk.8B" id="xmqK6uuSIucOSfRpiWDm-46">
          <mxCell style="html=1;whiteSpace=wrap;shape=mxgraph.aws4.instance2;labelPosition=center;verticalLabelPosition=bottom;align=center;verticalAlign=top;strokeColor=none;fontSize=11;spacing=0;strokeOpacity=100;fillOpacity=100;fillColor=#02b3e4;dashed=1;" vertex="1" parent="1">
            <mxGeometry x="607" y="171" width="48" height="48" as="geometry" />
          </mxCell>
        </UserObject>
        <UserObject label="Security Group: SGDB" lucidchartObjectId="Fi-ND6KdKcNy" id="xmqK6uuSIucOSfRpiWDm-47">
          <mxCell style="html=1;whiteSpace=wrap;verticalAlign=top;align=center;fillColor=none;fillOpacity=100;dashed=1;dashPattern=5 5;strokeColor=#5A6C86;fontColor=#5A6C86;fontSize=11;fontStyle=1;spacing=0;strokeOpacity=100;" vertex="1" parent="1">
            <mxGeometry x="799" y="295" width="192" height="192" as="geometry" />
          </mxCell>
        </UserObject>
        <UserObject label="RDS Database" lucidchartObjectId="Fi-NPd3eZtdX" id="xmqK6uuSIucOSfRpiWDm-48">
          <mxCell style="html=1;whiteSpace=wrap;shape=mxgraph.aws4.resourceIcon;resIcon=mxgraph.aws4.rds;verticalLabelPosition=bottom;align=center;verticalAlign=top;strokeColor=#ffffff;fontSize=11;fontColor=#000000;fontStyle=1;spacing=0;strokeOpacity=100;fillColor=#3b48cc;dashed=1;" vertex="1" parent="1">
            <mxGeometry x="859" y="343" width="72" height="72" as="geometry" />
          </mxCell>
        </UserObject>
        <UserObject label="End users" lucidchartObjectId="Fi-NgN~mxB7-" id="xmqK6uuSIucOSfRpiWDm-49">
          <mxCell style="html=1;whiteSpace=wrap;shape=mxgraph.aws4.users;labelPosition=center;verticalLabelPosition=bottom;align=center;verticalAlign=top;strokeColor=none;fontSize=11;fontColor=#000000;fontStyle=1;spacing=0;strokeOpacity=100;fillOpacity=100;fillColor=#02b3e4;dashed=1;" vertex="1" parent="1">
            <mxGeometry x="139" y="211" width="48" height="48" as="geometry" />
          </mxCell>
        </UserObject>
        <UserObject label="Public subnet space" lucidchartObjectId="Fi-NlMTkI~cX" id="xmqK6uuSIucOSfRpiWDm-50">
          <mxCell style="html=1;whiteSpace=wrap;fontSize=11;fontColor=#000000;fontStyle=1;spacing=3;verticalAlign=bottom;strokeOpacity=0;fillOpacity=100;fillColor=#ffffff;dashed=1;" vertex="1" parent="1">
            <mxGeometry x="259" y="43" width="276" height="492" as="geometry" />
          </mxCell>
        </UserObject>
        <UserObject label="Security Group:  SGALB" lucidchartObjectId="Fi-NlTSq0fS~" id="xmqK6uuSIucOSfRpiWDm-51">
          <mxCell style="html=1;whiteSpace=wrap;verticalAlign=top;align=center;fillColor=none;fillOpacity=100;dashed=1;dashPattern=5 5;strokeColor=#5A6C86;fontColor=#5A6C86;fontSize=11;fontStyle=1;spacing=0;strokeOpacity=100;" vertex="1" parent="1">
            <mxGeometry x="319" y="142" width="191" height="218" as="geometry" />
          </mxCell>
        </UserObject>
        <UserObject label="External Load Balancer" lucidchartObjectId="Fi-NZwjN1tcr" id="xmqK6uuSIucOSfRpiWDm-52">
          <mxCell style="html=1;whiteSpace=wrap;shape=mxgraph.aws4.network_load_balancer;labelPosition=center;verticalLabelPosition=bottom;align=center;verticalAlign=top;strokeColor=none;fontSize=11;fontColor=#000000;fontStyle=1;spacing=0;strokeOpacity=100;fillColor=#693cc5;dashed=1;" vertex="1" parent="1">
            <mxGeometry x="391" y="211" width="48" height="48" as="geometry" />
          </mxCell>
        </UserObject>
        <UserObject label="" lucidchartObjectId="Fi-NGBvOWaZB" id="xmqK6uuSIucOSfRpiWDm-53">
          <mxCell style="html=1;jettySize=18;fontSize=11;strokeColor=#232f3e;strokeOpacity=100;dashed=1;rounded=1;arcSize=0;startArrow=none;;endArrow=block;endFill=1;;exitX=1;exitY=0.5;exitPerimeter=1;entryX=-0.0029411764705882353;entryY=0.44020356234096697;entryPerimeter=1;" edge="1" parent="1" source="xmqK6uuSIucOSfRpiWDm-52" target="xmqK6uuSIucOSfRpiWDm-42">
            <mxGeometry width="100" height="100" relative="1" as="geometry" />
          </mxCell>
        </UserObject>
        <UserObject label="Developers" lucidchartObjectId="Fi-N6_IKE23d" id="xmqK6uuSIucOSfRpiWDm-54">
          <mxCell style="html=1;whiteSpace=wrap;shape=mxgraph.aws4.users;labelPosition=center;verticalLabelPosition=bottom;align=center;verticalAlign=top;strokeColor=none;fontSize=11;fontColor=#000000;fontStyle=1;spacing=0;strokeOpacity=100;fillOpacity=100;fillColor=#02b3e4;dashed=1;" vertex="1" parent="1">
            <mxGeometry x="103" y="355" width="48" height="48" as="geometry" />
          </mxCell>
        </UserObject>
        <UserObject label="Analytics team" lucidchartObjectId="Fi-NWPQqn3jF" id="xmqK6uuSIucOSfRpiWDm-55">
          <mxCell style="html=1;whiteSpace=wrap;shape=mxgraph.aws4.users;labelPosition=center;verticalLabelPosition=bottom;align=center;verticalAlign=top;strokeColor=none;fontSize=11;fontColor=#000000;fontStyle=1;spacing=0;strokeOpacity=100;fillOpacity=100;fillColor=#02b3e4;dashed=1;" vertex="1" parent="1">
            <mxGeometry x="103" y="439" width="48" height="48" as="geometry" />
          </mxCell>
        </UserObject>
        <UserObject label="" lucidchartObjectId="Fi-Neypq~b-A" id="xmqK6uuSIucOSfRpiWDm-56">
          <mxCell style="html=1;jettySize=18;fontSize=11;strokeColor=#232f3e;strokeOpacity=100;dashed=1;rounded=1;arcSize=0;startArrow=none;;endArrow=block;endFill=1;;exitX=1;exitY=0.5;exitPerimeter=1;entryX=0;entryY=0.5;entryPerimeter=1;" edge="1" parent="1" source="xmqK6uuSIucOSfRpiWDm-49" target="xmqK6uuSIucOSfRpiWDm-52">
            <mxGeometry width="100" height="100" relative="1" as="geometry" />
          </mxCell>
        </UserObject>
        <UserObject label="NAT gateway" lucidchartObjectId="Fi-NPg3Ih30j" id="xmqK6uuSIucOSfRpiWDm-57">
          <mxCell style="html=1;whiteSpace=wrap;shape=mxgraph.aws4.nat_gateway;labelPosition=center;verticalLabelPosition=bottom;align=center;verticalAlign=top;strokeColor=none;fontSize=11;fontColor=#000000;fontStyle=1;spacing=0;strokeOpacity=100;fillColor=#693cc5;dashed=1;" vertex="1" parent="1">
            <mxGeometry x="427" y="55" width="48" height="48" as="geometry" />
          </mxCell>
        </UserObject>
        <UserObject label="" lucidchartObjectId="Fi-N_Axwbpno" id="xmqK6uuSIucOSfRpiWDm-58">
          <mxCell style="html=1;jettySize=18;fontSize=11;strokeColor=#232f3e;strokeOpacity=100;dashed=1;rounded=1;arcSize=0;edgeStyle=orthogonalEdgeStyle;startArrow=none;;endArrow=block;endFill=1;;exitX=0.5184801701622603;exitY=-0.002421307506053269;exitPerimeter=1;entryX=1;entryY=0.5;entryPerimeter=1;" edge="1" parent="1" source="xmqK6uuSIucOSfRpiWDm-42" target="xmqK6uuSIucOSfRpiWDm-57">
            <mxGeometry width="100" height="100" relative="1" as="geometry" />
          </mxCell>
        </UserObject>
        <UserObject label=" Internet Gateway" lucidchartObjectId="Fi-NiP5Oac-D" id="xmqK6uuSIucOSfRpiWDm-59">
          <mxCell style="html=1;whiteSpace=wrap;shape=mxgraph.aws4.internet_alt2;labelPosition=center;verticalLabelPosition=bottom;align=center;verticalAlign=top;strokeColor=none;fontSize=11;fontColor=#000000;fontStyle=1;spacing=0;strokeOpacity=100;fillColor=#232f3e;dashed=1;" vertex="1" parent="1">
            <mxGeometry x="271" y="56" width="48" height="47" as="geometry" />
          </mxCell>
        </UserObject>
        <UserObject label="Mailgun" lucidchartObjectId="Fi-NVj1W5s5-" id="xmqK6uuSIucOSfRpiWDm-60">
          <mxCell style="html=1;whiteSpace=wrap;ellipse;fontSize=11;fontColor=#000000;fontStyle=1;spacing=3;strokeColor=#02b3e4;strokeOpacity=100;fillOpacity=0;fillColor=#000000;" vertex="1" parent="1">
            <mxGeometry x="19" y="43" width="108" height="72" as="geometry" />
          </mxCell>
        </UserObject>
        <UserObject label="" lucidchartObjectId="Fi-NssYLKcKg" id="xmqK6uuSIucOSfRpiWDm-61">
          <mxCell style="html=1;jettySize=18;fontSize=11;strokeColor=#232f3e;strokeOpacity=100;dashed=1;rounded=1;arcSize=0;startArrow=none;;endArrow=block;endFill=1;;exitX=0;exitY=0.5;exitPerimeter=1;entryX=0.9959998036998661;entryY=0.5;entryPerimeter=1;" edge="1" parent="1" source="xmqK6uuSIucOSfRpiWDm-57" target="xmqK6uuSIucOSfRpiWDm-59">
            <mxGeometry width="100" height="100" relative="1" as="geometry" />
          </mxCell>
        </UserObject>
        <UserObject label="" lucidchartObjectId="Fi-NiP~2bjTK" id="xmqK6uuSIucOSfRpiWDm-62">
          <mxCell style="html=1;jettySize=18;fontSize=11;strokeColor=#232f3e;strokeOpacity=100;dashed=1;rounded=1;arcSize=0;startArrow=none;;endArrow=block;endFill=1;;exitX=0.003562869730374274;exitY=0.5;exitPerimeter=1;entryX=1.0055557165336046;entryY=0.5;entryPerimeter=1;" edge="1" parent="1" source="xmqK6uuSIucOSfRpiWDm-59" target="xmqK6uuSIucOSfRpiWDm-60">
            <mxGeometry width="100" height="100" relative="1" as="geometry" />
          </mxCell>
        </UserObject>
        <UserObject label="Allow 0.0.0.0/0 port 80&#xa;Allow 0.0.0.0/0 port 443" lucidchartObjectId="Fi-N2l9d3Mn9" id="xmqK6uuSIucOSfRpiWDm-63">
          <mxCell style="html=1;whiteSpace=wrap;;fontSize=11;fontColor=#5a6c86;fontStyle=1;spacing=3;verticalAlign=top;strokeColor=none;fillOpacity=0;fillColor=#ffffff;strokeWidth=0;" vertex="1" parent="1">
            <mxGeometry x="353" y="304" width="125" height="32" as="geometry" />
          </mxCell>
        </UserObject>
        <UserObject label="Allow 0.0.0.0/0 port ALL" lucidchartObjectId="Fi-NLn3I_eIN" id="xmqK6uuSIucOSfRpiWDm-64">
          <mxCell style="html=1;whiteSpace=wrap;;fontSize=11;fontColor=#5a6c86;fontStyle=1;spacing=3;verticalAlign=top;strokeColor=none;fillOpacity=0;fillColor=#ffffff;strokeWidth=0;" vertex="1" parent="1">
            <mxGeometry x="607" y="352" width="140" height="30" as="geometry" />
          </mxCell>
        </UserObject>
        <UserObject label="Allow 0.0.0.0/0 port ALL" lucidchartObjectId="Fi-NLaZzg.Kl" id="xmqK6uuSIucOSfRpiWDm-65">
          <mxCell style="html=1;whiteSpace=wrap;;fontSize=11;fontColor=#5a6c86;fontStyle=1;spacing=3;verticalAlign=top;strokeColor=none;fillOpacity=0;fillColor=#ffffff;strokeWidth=0;" vertex="1" parent="1">
            <mxGeometry x="835" y="463" width="140" height="30" as="geometry" />
          </mxCell>
        </UserObject>
        <UserObject label="" lucidchartObjectId="Fi-Nmg3I.a96" id="xmqK6uuSIucOSfRpiWDm-66">
          <mxCell style="html=1;jettySize=18;fontSize=11;strokeColor=#232f3e;strokeOpacity=100;dashed=1;rounded=1;arcSize=0;edgeStyle=orthogonalEdgeStyle;startArrow=none;;endArrow=block;endFill=1;;exitX=1.0029411764705882;exitY=0.5;exitPerimeter=1;entryX=0.5;entryY=-0.0031249999999999993;entryPerimeter=1;" edge="1" parent="1" source="xmqK6uuSIucOSfRpiWDm-42" target="xmqK6uuSIucOSfRpiWDm-47">
            <mxGeometry width="100" height="100" relative="1" as="geometry" />
          </mxCell>
        </UserObject>
      </root>
    </mxGraphModel>
  </diagram>
</mxfile>
